<svg width="32px" height="32px" viewBox="0 -1.778 32 32" xmlns="http://www.w3.org/2000/svg">
    <path d="M15.576 8.237 5.333 16.673V25.778a0.889 0.889 0 0 0 0.889 0.889l6.226 -0.016a0.889 0.889 0 0 0 0.884 -0.889V20.444a0.889 0.889 0 0 1 0.889 -0.889h3.556a0.889 0.889 0 0 1 0.889 0.889v5.313a0.889 0.889 0 0 0 0.889 0.892L25.778 26.667a0.889 0.889 0 0 0 0.889 -0.889V16.667L16.426 8.237a0.677 0.677 0 0 0 -0.85 0M31.756 13.971 27.111 10.142V2.447a0.667 0.667 0 0 0 -0.667 -0.667h-3.111a0.667 0.667 0 0 0 -0.667 0.667v4.034L17.693 2.389a2.667 2.667 0 0 0 -3.389 0L0.241 13.971a0.667 0.667 0 0 0 -0.089 0.939l1.417 1.722A0.667 0.667 0 0 0 2.508 16.722l13.068 -10.763a0.677 0.677 0 0 1 0.85 0L29.494 16.722a0.667 0.667 0 0 0 0.939 -0.089l1.417 -1.722a0.667 0.667 0 0 0 -0.094 -0.941"/>
</svg>