<svg width="32" height="32" viewBox="0 0 0.96 0.96" xmlns="http://www.w3.org/2000/svg">
  <path d="M.947.616Q.903.569.777.568a1 1 0 0 0-.156.016L.626.583A1 1 0 0 1 .535.476L.533.474A1 1 0 0 1 .478.387L.476.382A.8.8 0 0 0 .524.139V.137C.524.07.5 0 .43 0a.07.07 0 0 0-.054.032h.001C.346.089.36.212.414.335a3 3 0 0 1-.068.184 2 2 0 0 1-.077.165C.112.747.011.822.001.88a.06.06 0 0 0 .018.058.1.1 0 0 0 .059.022h.001C.183.96.293.788.348.685L.476.644A1 1 0 0 1 .612.613c.11.1.207.116.255.116.06 0 .081-.025.088-.045a.07.07 0 0 0-.01-.07zM.891.658a.05.05 0 0 1-.056.036L.81.691h.001A.4.4 0 0 1 .654.606a1 1 0 0 1 .119-.01h.001a.3.3 0 0 1 .075.006H.847c.02.004.051.017.044.055zM.589.589.471.617.37.648.418.544Q.443.481.464.422q.022.037.045.071a1 1 0 0 0 .08.098L.588.59V.589zM.402.048A.03.03 0 0 1 .429.031c.03 0 .036.035.036.063a.8.8 0 0 1-.04.205L.427.294C.384.181.381.086.403.05zM.246.727C.173.849.104.925.061.925A.04.04 0 0 1 .04.918.03.03 0 0 1 .03.887C.039.843.12.782.246.727"/>
</svg>
