<svg width="32" height="32" viewBox="0 0 1.28 1.28">
    <path
        d="m0.931 0.975 0.036 -0.036c0.167 0.005 0.169 0 0.176 -0.018l0.046 -0.111 0.003 -0.011 -0.004 -0.009c-0.002 -0.005 -0.008 -0.019 -0.112 -0.119V0.62c0.12 -0.116 0.117 -0.122 0.111 -0.138l-0.046 -0.113c-0.007 -0.017 -0.009 -0.023 -0.175 -0.019l-0.036 -0.037a0.8 0.8 0 0 0 -0.006 -0.164l-0.005 -0.011 -0.119 -0.052c-0.018 -0.008 -0.024 -0.011 -0.136 0.111l-0.05 -0.001c-0.116 -0.123 -0.121 -0.121 -0.138 -0.114L0.366 0.127c-0.017 0.007 -0.023 0.009 -0.017 0.177l-0.036 0.036c-0.166 -0.005 -0.169 0 -0.176 0.018l-0.046 0.111 -0.004 0.011 0.004 0.009c0.002 0.005 0.008 0.019 0.112 0.118v0.052c-0.12 0.116 -0.117 0.122 -0.111 0.138l0.046 0.113c0.007 0.017 0.009 0.023 0.175 0.019l0.036 0.037a0.808 0.808 0 0 0 0.005 0.164l0.005 0.011 0.12 0.052c0.017 0.007 0.023 0.01 0.135 -0.112l0.05 0.001c0.116 0.124 0.122 0.121 0.139 0.114l0.11 -0.045c0.017 -0.007 0.024 -0.009 0.017 -0.177m-0.474 -0.261a0.198 0.198 0 1 1 0.26 0.113 0.201 0.201 0 0 1 -0.26 -0.113"
        fill="#000000" />
</svg>