<svg width="32" height="32" viewBox="0 0 32 32" xmlns="http://www.w3.org/2000/svg">
  <path fill="#494c4e" d="M26.667 2.667h-5.333V1.534A1.543 1.543 0 0 0 19.8 0h-7.6c-.84 0-1.533.693-1.533 1.533v1.134H5.333a2.675 2.675 0 0 0-2.667 2.667c0 .987.533 1.84 1.333 2.307v18.693A5.68 5.68 0 0 0 9.667 32h12.667A5.68 5.68 0 0 0 28 26.333V7.64a2.66 2.66 0 0 0 1.333-2.307c0-1.467-1.2-2.667-2.667-2.667m-1.333 23.667c0 1.653-1.347 3-3 3H9.666a3.003 3.003 0 0 1-2.999-3V8h18.667z"/>
  <path fill="#494c4e" d="M10.667 26.696a1.333 1.333 0 0 1-1.333-1.333V12.03a1.333 1.333 0 1 1 2.667 0v13.333a1.333 1.333 0 0 1-1.333 1.333m10.667 0a1.333 1.333 0 0 1-1.333-1.333V12.03a1.333 1.333 0 1 1 2.667 0v13.333a1.333 1.333 0 0 1-1.333 1.333m-5.333 0a1.333 1.333 0 0 1-1.333-1.333V12.03a1.333 1.333 0 1 1 2.667 0v13.333a1.333 1.333 0 0 1-1.333 1.333"/>
</svg>
