<svg xmlns="http://www.w3.org/2000/svg" viewBox="0 0 309.529 309.529" xmlSpace="preserve">
  <path style="fill:#3db39e" d="M179.728 251.279c0-39.586 32.096-71.682 71.682-71.682 6.698 0 13.173.995 19.329 2.716V86.711L183.69 0H19.46C8.79 0 .13 8.65.13 19.329v270.609c0 10.679 8.659 19.329 19.329 19.329h189.929c-17.947-13.028-29.66-34.106-29.66-57.988"/>
  <path style="fill:#2f8a78" d="M270.46 86.981h-67.372c-10.67 0-19.329-8.659-19.329-19.329V.193z"/>
  <path style="fill:#3db39e" d="M251.41 193.553c32.028 0 57.988 25.969 57.988 57.988 0 32.009-25.959 57.988-57.988 57.988-32.009 0-57.988-25.978-57.988-57.988 0-32.019 25.979-57.988 57.988-57.988"/>
  <path style="fill:#fff" d="M270.74 241.876h-9.665v-9.665a9.656 9.656 0 0 0-9.665-9.665 9.656 9.656 0 0 0-9.665 9.665v9.665h-9.665a9.656 9.656 0 0 0-9.665 9.665 9.65 9.65 0 0 0 9.665 9.665h9.665v9.665a9.65 9.65 0 0 0 9.665 9.665 9.65 9.65 0 0 0 9.665-9.665v-9.665h9.665a9.65 9.65 0 0 0 9.665-9.665c-.001-5.335-4.32-9.665-9.665-9.665"/>
  <path style="fill:#8bd1c5" d="M183.758 228.026v-5.741h2.252a71 71 0 0 1 5.258-9.665h-7.509V193.3h19.329v5.422a72 72 0 0 1 9.665-7.471V125.64H58.118v125.64h121.619c.039-8.157 1.479-15.947 4.021-23.254m0-92.722h19.329v19.329h-19.329zm0 29.004h19.329v19.32h-19.329zm-96.646 77.317H67.783v-19.339h19.329zm0-29.004H67.783v-19.32h19.329zm0-28.994H67.783v-19.32h19.329zm0-28.993H67.783v-19.329h19.329zm28.994 86.991h-19.33v-19.339h19.329zm0-29.004h-19.33v-19.32h19.329zm0-28.994h-19.33v-19.32h19.329zm0-28.993h-19.33v-19.329h19.329zm28.993 86.991H125.77v-19.339h19.329zm0-29.004H125.77v-19.32h19.329zm0-28.994H125.77v-19.32h19.329zm0-28.993H125.77v-19.329h19.329zm28.994 86.991h-19.329v-19.339h19.329zm0-29.004h-19.329v-19.32h19.329zm0-28.994h-19.329v-19.32h19.329zm-19.329-28.993v-19.329h19.329v19.329z"/>
</svg>
