<svg xmlns="http://www.w3.org/2000/svg" viewBox="0 0 32 32" xmlSpace="preserve" width="32" height="32">
  <path d="M27.314 4.686A15.9 15.9 0 0 0 16 0C12.293 0 8.68 1.297 5.826 3.651a.539.539 0 0 0 .685.831A14.94 14.94 0 0 1 16 1.077c8.229 0 14.923 6.694 14.923 14.923 0 3.694-1.361 7.239-3.831 9.983a.54.54 0 0 0 .04.76.54.54 0 0 0 .36.138.54.54 0 0 0 .4-.178A15.97 15.97 0 0 0 32 16c0-4.274-1.664-8.292-4.686-11.314m-.959 22.807a.54.54 0 0 0-.759-.066A14.93 14.93 0 0 1 16 30.922c-8.229 0-14.923-6.694-14.923-14.923 0-3.746 1.394-7.328 3.926-10.086a.539.539 0 0 0-.793-.728A15.95 15.95 0 0 0 0 16c0 4.274 1.664 8.292 4.686 11.314A15.9 15.9 0 0 0 16 32c3.76 0 7.414-1.331 10.289-3.748a.54.54 0 0 0 .066-.759"/>
  <path d="M18.085 11.816h-4.171a.54.54 0 0 0-.538.538v14.112a.54.54 0 0 0 .538.538h4.171a.54.54 0 0 0 .538-.539v-14.11a.54.54 0 0 0-.538-.538m-.538 14.112h-3.094V12.893h3.094zM16 4.919a3 3 0 0 0-2.996 2.996A3 3 0 0 0 16 10.911a3 3 0 0 0 2.996-2.996A3 3 0 0 0 16 4.919m0 4.914c-1.058 0-1.919-.861-1.919-1.919S14.942 5.996 16 5.996s1.919.861 1.919 1.919S17.058 9.834 16 9.834"/>
</svg>
