<svg xmlns="http://www.w3.org/2000/svg" width="32" height="32" viewBox="0 0 1.32 1.28" xmlSpace="preserve">
  <g fill="#000000">
    <path d="M1.32.896a.06.06 0 0 0-.032-.053.02.02 0 0 0-.019.035.02.02 0 0 1 .011.018.02.02 0 0 1-.011.018l-.582.313a.06.06 0 0 1-.056 0L.05.925A.02.02 0 0 1 .039.907.02.02 0 0 1 .05.889.02.02 0 0 0 .03.854a.06.06 0 0 0 .002.107l.581.302a.1.1 0 0 0 .094-.001l.582-.313a.06.06 0 0 0 .032-.053"/>
    <path d="m.032.705.581.302a.1.1 0 0 0 .094-.001l.582-.313A.06.06 0 0 0 1.321.64a.06.06 0 0 0-.032-.053.02.02 0 0 0-.019.035.02.02 0 0 1 .011.018.02.02 0 0 1-.011.018L.688.971a.06.06 0 0 1-.056 0L.051.669A.02.02 0 0 1 .04.651.02.02 0 0 1 .051.633a.02.02 0 0 0-.02-.035A.06.06 0 0 0 0 .652q.001.035.033.053"/>
    <path d="m.032.449.581.302q.022.01.046.011A.1.1 0 0 0 .706.75l.582-.313A.06.06 0 0 0 1.32.384a.06.06 0 0 0-.032-.053L.708.018a.1.1 0 0 0-.096.001L.031.343A.06.06 0 0 0 0 .396a.06.06 0 0 0 .033.053M.051.377.632.053a.06.06 0 0 1 .058 0l.58.313a.02.02 0 0 1 .011.018.02.02 0 0 1-.011.018L.688.715A.1.1 0 0 1 .66.722.1.1 0 0 1 .632.715L.051.413A.02.02 0 0 1 .04.395.02.02 0 0 1 .05.377"/>
  </g>
</svg>
