<svg width="32" height="32" viewBox="0 0 0.96 0.96" xmlns="http://www.w3.org/2000/svg">
  <path d="M0.844 0.615 0.92 0.66 0.48 0.92 0.04 0.66l0.076 -0.045 0.039 0.023 -0.037 0.022L0.48 0.874l0.361 -0.214 -0.037 -0.022zm-0.157 -0.206 0.155 0.092 -0.361 0.214 -0.361 -0.214L0.282 0.404l0.026 -0.061q0 -0.001 0.001 -0.001L0.04 0.5 0.48 0.76l0.44 -0.26 -0.204 -0.121zm-0.375 0.13 0.013 -0.031L0.381 0.374l0.332 -0.332a0.039 0.039 0 0 1 0.055 0l0.057 0.057a0.039 0.039 0 0 1 0.001 0.055l-0.333 0.333 -0.127 0.055 -0.037 0.016a0.015 0.015 0 0 1 -0.019 -0.019m0.373 -0.41 0.057 0.057 0.046 -0.046a0.017 0.017 0 0 0 0 -0.023l-0.032 -0.034a0.017 0.017 0 0 0 -0.024 0zm-0.247 0.247 0.057 0.057 0.219 -0.219 -0.057 -0.057zm-0.064 0.121 0.09 -0.038 -0.051 -0.051z"/>
  <path fill="none" d="M0 0h0.96v0.96H0z"/>
</svg>
