<svg width="32" height="32" viewBox="0 0 1.28 1.28" xmlns="http://www.w3.org/2000/svg">
  <path d="m1.212.612-.56-.24a.03.03 0 0 0-.024 0l-.56.24a.03.03 0 0 0 0 .055l.56.24a.03.03 0 0 0 .024 0l.56-.24a.03.03 0 0 0 0-.055M.64.847.156.64.64.433l.484.207zm.572.085-.16-.069a.03.03 0 0 0-.024.055l.096.042-.484.207L.156.96.252.919A.03.03 0 1 0 .228.864l-.16.069a.03.03 0 0 0 0 .055l.56.24a.03.03 0 0 0 .024 0l.56-.24a.03.03 0 0 0 0-.055zM.951.234h.094v.094a.03.03 0 0 0 .06 0V.234h.094a.03.03 0 0 0 0-.06h-.094V.08a.03.03 0 0 0-.06 0v.094H.951a.03.03 0 0 0 0 .06"/>
</svg>
