<svg width="32" height="32" viewBox="0 0 1.28 1.28" xmlns="http://www.w3.org/2000/svg">
  <path d="m1.212 0.612 -0.56 -0.24a0.03 0.03 0 0 0 -0.024 0l0 0 -0.56 0.24a0.03 0.03 0 0 0 0 0.055l0 0 0.56 0.24a0.03 0.03 0 0 0 0.024 0l0 0 0.56 -0.24a0.03 0.03 0 0 0 0 -0.055zM0.64 0.847 0.156 0.64 0.64 0.433 1.124 0.64zm0.572 0.085 -0.16 -0.069a0.03 0.03 0 0 0 -0.024 0.055l0 0L1.124 0.96 0.64 1.167 0.156 0.96l0.096 -0.041a0.03 0.03 0 1 0 -0.024 -0.055l0 0 -0.16 0.069a0.03 0.03 0 0 0 0 0.055l0 0 0.56 0.24a0.03 0.03 0 0 0 0.024 0l0 0 0.56 -0.24a0.03 0.03 0 0 0 0 -0.055l0 0zm-0.261 -0.698H1.2a0.03 0.03 0 0 0 0 -0.06h-0.249a0.03 0.03 0 0 0 0 0.06"/>
</svg>
