<svg width="32" height="32" viewBox="0 0 0.96 0.96" xmlns="http://www.w3.org/2000/svg">
  <path d="m0.726 0.528 0.115 -0.068 -0.037 -0.022 0.039 -0.023L0.92 0.46l-0.143 0.084a0.36 0.36 0 0 0 -0.051 -0.016m-0.397 0.25 -0.01 -0.013a0.04 0.04 0 0 1 -0.008 -0.031l-0.193 -0.114 0.037 -0.022 -0.039 -0.023L0.04 0.62l0.314 0.185a0.52 0.52 0 0 1 -0.024 -0.028M0.48 0.56 0.04 0.3 0.48 0.04l0.44 0.26zM0.119 0.3 0.48 0.514l0.361 -0.214L0.48 0.086zm0.284 0.328 -0.284 -0.168 0.037 -0.022 -0.039 -0.023L0.04 0.46l0.332 0.196q0.014 -0.013 0.031 -0.028zm0.548 0.124L0.96 0.74l-0.009 -0.012C0.946 0.721 0.82 0.56 0.66 0.56c-0.16 0 -0.285 0.161 -0.29 0.168L0.36 0.74l0.01 0.012C0.375 0.759 0.5 0.92 0.66 0.92c0.16 0 0.286 -0.161 0.291 -0.168M0.66 0.596c0.12 0 0.225 0.107 0.257 0.144 -0.032 0.037 -0.137 0.144 -0.257 0.144 -0.12 0 -0.223 -0.107 -0.256 -0.144 0.033 -0.037 0.136 -0.144 0.256 -0.144m0.096 0.144a0.096 0.096 0 1 0 -0.096 0.096 0.096 0.096 0 0 0 0.096 -0.096"/>
  <path fill="none" d="M0 0h0.96v0.96H0z"/>
</svg>
