<svg height="32" width="32" xmlns="http://www.w3.org/2000/svg" viewBox="0 0 0.96 0.96" xmlSpace="preserve"><path d="m0.48 0.928 -0.024 -0.02C0.348 0.828 0 0.54 0 0.292 0 0.152 0.116 0.04 0.26 0.04c0.088 0 0.172 0.044 0.22 0.116C0.528 0.084 0.612 0.04 0.7 0.04 0.844 0.04 0.96 0.152 0.96 0.292c0 0.252 -0.348 0.536 -0.456 0.62zM0.26 0.116C0.16 0.116 0.08 0.192 0.08 0.288c0 0.164 0.204 0.38 0.4 0.536 0.196 -0.156 0.4 -0.372 0.4 -0.536 0 -0.096 -0.08 -0.172 -0.18 -0.172 -0.064 0 -0.12 0.032 -0.152 0.08L0.48 0.304 0.412 0.2c-0.032 -0.052 -0.088 -0.084 -0.152 -0.084"/></svg>