<svg xmlns="http://www.w3.org/2000/svg" viewBox="0 0 32 32" xmlSpace="preserve" width="32" height="32">
  <path fill="#000000" d="m31.765 15.422 -4.529 -4.529a0.8 0.8 0 0 0 -1.132 0 0.8 0.8 0 0 0 0 1.132l3.162 3.162H16.8V2.734l3.162 3.162a0.8 0.8 0 0 0 1.132 0 0.8 0.8 0 0 0 0 -1.132L16.566 0.235c-0.313 -0.313 -0.819 -0.313 -1.132 0l-4.529 4.529a0.8 0.8 0 0 0 0 1.132c0.313 0.313 0.819 0.313 1.132 0l3.162 -3.162v12.454H2.734l3.162 -3.162a0.8 0.8 0 0 0 0 -1.132 0.8 0.8 0 0 0 -1.132 0L0.235 15.422c-0.313 0.313 -0.313 0.819 0 1.132l4.529 4.529a0.8 0.8 0 0 0 1.132 0c0.313 -0.313 0.313 -0.819 0 -1.132l-3.162 -3.162h12.466v12.478l-3.162 -3.162c-0.313 -0.313 -0.819 -0.313 -1.132 0a0.8 0.8 0 0 0 0 1.132l4.529 4.529c0.312 0.312 0.819 0.312 1.132 0l4.529 -4.529a0.8 0.8 0 0 0 0 -1.132c-0.313 -0.312 -0.819 -0.312 -1.132 0l-3.162 3.162V16.789h12.466l-3.162 3.162c-0.313 0.313 -0.313 0.819 0 1.132s0.819 0.313 1.132 0l4.529 -4.529c0.312 -0.313 0.312 -0.82 -0.001 -1.133"/>
</svg>
