<svg width="32" height="32" viewBox="0 0 16 16" xmlns="http://www.w3.org/2000/svg" fill="none">
  <path fill="#000000" d="M7.463.057A.8.8 0 0 0 7.22.22l-2 2a.75.75 0 0 0 1.06 1.06L7 2.56V7H2.56l.72-.72a.75.75 0 0 0-1.06-1.06l-2 2a.75.75 0 0 0 0 1.06l2 2a.75.75 0 1 0 1.06-1.06l-.72-.72H7v4.44l-.72-.72a.75.75 0 0 0-1.06 1.06l2 2a.75.75 0 0 0 1.06 0l2-2a.75.75 0 1 0-1.06-1.06l-.72.72V8.5h4.44l-.72.72a.75.75 0 1 0 1.06 1.06l2-2a.75.75 0 0 0 0-1.06l-2-2a.75.75 0 1 0-1.06 1.06l.72.72H8.5V2.56l.72.72a.75.75 0 1 0 1.06-1.06l-2-2a.75.75 0 0 0-.817-.163"/>
</svg>
