<svg width="32" height="32" viewBox="0 0 .68 .68" xmlns="http://www.w3.org/2000/svg" class="si-glyph si-glyph-square-eight-angle-point">
  <path d="M.64.16V.042H.522v.041H.4V.042H.242v.041H.12V.042H.002V.16h.04v.122h-.04V.44h.04v.122h-.04V.68H.12V.639h.122V.68H.4V.639h.122V.68H.64V.562H.599V.44H.64V.282H.599V.16zM.362.078v.045H.279V.078zm.24 0v.045H.559V.078zm-.563 0h.043v.045H.039zm0 .24h.045v.085H.039zm.044.326H.039V.599h.043zM.28.643V.598h.083v.045zm.28 0V.598h.045v.045zM.605.405H.56V.318h.045zM.523.282V.44h.04v.122h-.04v.041H.4V.562H.242v.041H.12V.562H.079V.44H.12V.282H.079V.16H.12V.119h.122V.16H.4V.119h.122V.16h.04v.122z" fill="#434343" class="si-glyph-fill" fillRule="evenodd"/>
</svg>
