<svg xmlns="http://www.w3.org/2000/svg" viewBox="0 0 300 300" xmlSpace="preserve" width="300" height="300">
  <path style="fill:#e2574c" d="M37.5 0h159.309l84.441 84.114V281.25A18.75 18.75 0 0 1 262.5 300h-225a18.75 18.75 0 0 1-18.75-18.75V18.75A18.75 18.75 0 0 1 37.5 0"/>
  <path style="fill:#b53629" d="M280.98 84.375h-65.352c-10.35 0-18.75-8.4-18.75-18.75V.186z"/>
  <path style="fill:#fff" d="M210.918 142.152c3.141 0 4.677-2.736 4.677-5.391 0-2.748-1.602-5.4-4.677-5.4h-17.886c-3.498 0-5.448 2.898-5.448 6.093v43.959c0 3.918 2.232 6.093 5.25 6.093 3 0 5.241-2.175 5.241-6.093v-12.066h10.818c3.357 0 5.034-2.748 5.034-5.475 0-2.67-1.677-5.325-5.034-5.325h-10.818v-16.398zm-60.459-10.791H137.37c-3.552 0-6.075 2.439-6.075 6.057v44.034c0 4.491 3.627 5.898 6.225 5.898h13.734c16.257 0 26.991-10.698 26.991-27.207-.009-17.457-10.116-28.782-27.786-28.782m.63 45.132h-7.98v-34.275h7.191c10.884 0 15.618 7.302 15.618 17.382 0 9.432-4.65 16.893-14.832 16.893m-47.943-45.132H90.177c-3.666 0-5.709 2.418-5.709 6.093v43.959c0 3.918 2.343 6.093 5.493 6.093s5.493-2.175 5.493-6.093v-12.834h8.127c10.032 0 18.309-7.107 18.309-18.534 0-11.184-7.986-18.684-18.75-18.684m-.216 26.907h-7.473v-16.584h7.473c4.614 0 7.548 3.6 7.548 8.298-.009 4.689-2.934 8.289-7.548 8.289"/>
</svg>
