<svg xmlns="http://www.w3.org/2000/svg" viewBox="0 0 32 32" xmlSpace="preserve" width="32" height="32">
  <path style="fill:#e2574c" d="M4 0h16.993L30 8.972V30a2 2 0 0 1-2 2H4a2 2 0 0 1-2-2V2a2 2 0 0 1 2-2"/>
  <path style="fill:#b53629" d="M29.971 9H23a2 2 0 0 1-2-2V.02z"/>
  <path style="fill:#fff" d="M22.498 15.163c.335 0 .499-.292.499-.575 0-.293-.171-.576-.499-.576H20.59c-.373 0-.581.309-.581.65v4.689c0 .418.238.65.56.65.32 0 .559-.232.559-.65v-1.287h1.154c.358 0 .537-.293.537-.584 0-.285-.179-.568-.537-.568h-1.154v-1.749zm-6.449-1.151h-1.396c-.379 0-.648.26-.648.646v4.697c0 .479.387.629.664.629h1.465c1.734 0 2.879-1.141 2.879-2.902-.001-1.862-1.079-3.07-2.964-3.07m.067 4.814h-.851V15.17h.767c1.161 0 1.666.779 1.666 1.854 0 1.006-.496 1.802-1.582 1.802m-5.114-4.814H9.619c-.391 0-.609.258-.609.65v4.689c0 .418.25.65.586.65s.586-.232.586-.65v-1.369h.867c1.07 0 1.953-.758 1.953-1.977 0-1.193-.852-1.993-2-1.993m-.023 2.87h-.797v-1.769h.797c.492 0 .805.384.805.885-.001.5-.313.884-.805.884"/>
</svg>
