<svg xmlns="http://www.w3.org/2000/svg" viewBox="0 0 309.529 309.529" xmlSpace="preserve"><path style="fill:#e2574c" d="M179.728 251.279c0-39.586 32.096-71.682 71.682-71.682 6.698 0 13.173.995 19.329 2.716V86.711L183.69 0H19.46C8.79 0 .13 8.65.13 19.329v270.609c0 10.679 8.659 19.329 19.329 19.329h189.929c-17.947-13.028-29.66-34.106-29.66-57.988"/><path style="fill:#b53629" d="M270.46 86.981h-67.372c-10.67 0-19.329-8.659-19.329-19.329V.193z"/><path style="fill:#3db39e" d="M251.41 193.553c32.028 0 57.988 25.969 57.988 57.988 0 32.009-25.959 57.988-57.988 57.988-32.009 0-57.988-25.978-57.988-57.988 0-32.019 25.979-57.988 57.988-57.988"/><path style="fill:#fff" d="M270.74 241.876h-9.665v-9.665a9.656 9.656 0 0 0-9.665-9.665 9.656 9.656 0 0 0-9.665 9.665v9.665h-9.665a9.656 9.656 0 0 0-9.665 9.665 9.65 9.65 0 0 0 9.665 9.665h9.665v9.665a9.65 9.65 0 0 0 9.665 9.665 9.65 9.65 0 0 0 9.665-9.665v-9.665h9.665a9.65 9.65 0 0 0 9.665-9.665c-.001-5.335-4.32-9.665-9.665-9.665m-72.505-95.332c3.238 0 4.823-2.822 4.823-5.557 0-2.832-1.653-5.567-4.823-5.567h-18.44c-3.605 0-5.615 2.986-5.615 6.282v45.317c0 4.04 2.3 6.282 5.412 6.282 3.093 0 5.403-2.242 5.403-6.282v-12.438h11.153c3.46 0 5.19-2.832 5.19-5.644 0-2.754-1.73-5.49-5.19-5.49h-11.153v-16.903zm-62.327-11.124h-13.492c-3.663 0-6.263 2.513-6.263 6.243v45.395c0 4.629 3.74 6.079 6.417 6.079h14.159c16.758 0 27.824-11.027 27.824-28.047-.008-17.995-10.427-29.67-28.645-29.67m.648 46.526h-8.225v-35.334h7.413c11.221 0 16.101 7.529 16.101 17.918 0 9.723-4.793 17.416-15.289 17.416M87.131 135.42H73.765c-3.779 0-5.886 2.493-5.886 6.282v45.317c0 4.04 2.416 6.282 5.663 6.282s5.663-2.242 5.663-6.282v-13.231h8.379c10.341 0 18.875-7.326 18.875-19.107.001-11.529-8.233-19.261-19.328-19.261m-.222 27.738h-7.703v-17.097h7.703c4.755 0 7.78 3.711 7.78 8.553-.01 4.833-3.025 8.544-7.78 8.544"/></svg>