<svg width="32" height="32" viewBox="0 0 32 32" fill="none" xmlns="http://www.w3.org/2000/svg">
  <path fillRule="evenodd" clipRule="evenodd" d="M9.333 26.667a1.333 1.333 0 1 0 0-2.667 1.333 1.333 0 0 0 0 2.667m0 1.333a2.667 2.667 0 1 0 0-5.333 2.667 2.667 0 0 0 0 5.333M6.666 14.667a1.333 1.333 0 1 0 0-2.667 1.333 1.333 0 0 0 0 2.667m0 1.333a2.667 2.667 0 1 0 0-5.333 2.667 2.667 0 0 0 0 5.333m18.667-1.333a1.333 1.333 0 1 0 0-2.667 1.333 1.333 0 0 0 0 2.667m0 1.333a2.667 2.667 0 1 0 0-5.333 2.667 2.667 0 0 0 0 5.333m-2.667 10.667a1.333 1.333 0 1 0 0-2.667 1.333 1.333 0 0 0 0 2.667m0 1.333a2.667 2.667 0 1 0 0-5.333 2.667 2.667 0 0 0 0 5.333M16 8a1.333 1.333 0 1 0 0-2.667A1.333 1.333 0 0 0 16 8m0 1.333A2.667 2.667 0 1 0 16 4a2.667 2.667 0 0 0 0 5.333" fill="#000000"/>
  <path fillRule="evenodd" clipRule="evenodd" d="m23.279 12.685-6-4.285.775-1.085 6 4.286zm-8.757-4.144L8.72 12.685 7.945 11.6l5.802-4.145zm-6.761 6.647 1.777 8-1.301.289-1.778-8zm14.699 8 1.703-7.667 1.301.289-1.703 7.667zm-11.127 1.479h9.333V26h-9.333z" fill="#000000"/>
</svg>
