<svg width="32px" height="32px" viewBox="0 0 0.96 0.96" xmlns="http://www.w3.org/2000/svg">
  <path d="M0.88 0.28h-0.12V0.184L0.616 0.04H0.36v0.24H0.24a0.04 0.04 0 0 0 -0.04 0.04v0.042c0.007 -0.001 0.013 -0.002 0.02 -0.002s0.013 0.001 0.02 0.002V0.32h0.64v0.28h-0.12v-0.04h0.04v-0.08h-0.385a0.216 0.216 0 0 1 0.016 0.04H0.72v0.2h-0.217l0.04 0.04H0.76v-0.12h0.12a0.04 0.04 0 0 0 0.04 -0.04V0.32a0.04 0.04 0 0 0 -0.04 -0.04m-0.28 -0.2 0.12 0.12h-0.12zm-0.2 0.2V0.08h0.16v0.16h0.16v0.04zm0.08 0.32v-0.04h0.16v0.04zm0 0.04h0.16v0.04h-0.16zm0.36 -0.24h-0.04V0.36h0.04zM0.392 0.714l-0.005 0.005 -0.027 -0.027a0.179 0.179 0 1 0 -0.14 0.068 0.178 0.178 0 0 0 0.112 -0.04l0.027 0.027 -0.005 0.005a0.027 0.027 0 0 0 0 0.038l0.123 0.123a0.027 0.027 0 0 0 0.038 0l0.038 -0.038a0.027 0.027 0 0 0 0 -0.038l-0.123 -0.123a0.027 0.027 0 0 0 -0.038 0m-0.312 -0.134a0.14 0.14 0 1 1 0.14 0.14 0.14 0.14 0 0 1 -0.14 -0.14m0.434 0.276 -0.019 0.019 -0.104 -0.104 0.019 -0.019z"/>
  <path fill="none" d="M0 0h0.96v0.96H0z"/>
</svg>
