<svg width="32px" height="32px" viewBox="0 0 40.96 40.96" class="icon" version="1.1" xmlns="http://www.w3.org/2000/svg">
  <path d="M34.987 1.707a0.853 0.853 0 0 0 -0.853 -0.853H6.827a0.853 0.853 0 0 0 -0.853 0.853V10.24h29.013z" fill="#727272"/>
  <path d="M36.693 9.387H4.267A3.413 3.413 0 0 0 0.853 12.8v17.067A1.707 1.707 0 0 0 2.56 31.573h5.973A0.853 0.853 0 0 0 9.387 30.72h22.186a0.853 0.853 0 0 0 0.853 0.853H38.4a1.707 1.707 0 0 0 1.707 -1.707V12.8a3.413 3.413 0 0 0 -3.413 -3.413" fill="#444444"/>
  <path d="M34.987 31.573H5.973v-10.24A0.853 0.853 0 0 1 6.827 20.48h27.307a0.853 0.853 0 0 1 0.853 0.853z" fill="#232323"/>
  <path d="M7.68 22.187v17.067a0.853 0.853 0 0 0 0.853 0.853h23.893A0.853 0.853 0 0 0 33.28 39.253V22.187z" fill="#E6E6E6"/>
  <path d="M34.133 14.933a1.28 1.28 0 1 0 2.56 0 1.28 1.28 0 1 0 -2.56 0" fill="#72C472"/>
  <path d="M27.307 27.307H13.652a0.853 0.853 0 1 1 0 -1.707h13.654a0.853 0.853 0 1 1 0 1.707m0 4.267H13.652a0.853 0.853 0 1 1 0 -1.707h13.654a0.853 0.853 0 1 1 0 1.707M20.479 35.84H13.652a0.853 0.853 0 1 1 0 -1.707h6.827a0.853 0.853 0 1 1 0 1.707" fill="#B3B3B3"/>
</svg>
