<svg width="32" height="32" viewBox="0 0 1.92 1.92" version="1" xmlns="http://www.w3.org/2000/svg">
  <path fill="#fff" d="M1.323 1.685H.203V.16H.96l.363.363z"/>
  <path d="M1.259.555H.917V.224zm.117.949.075-.075.341.341-.075.075z"/>
  <path d="M1.557 1.163a.427.427 0 0 1-.437.437.427.427 0 0 1-.437-.437.437.437 0 0 1 .885 0"/>
  <path fill="#90CAF9" d="M1.483 1.163a.363.363 0 0 1-.363.363.363.363 0 0 1-.363-.363.363.363 0 0 1 .725 0"/>
  <path d="m1.472 1.6.075-.075.245.245-.075.075zm-.277-.363H.811a.4.4 0 0 0 .096.16h.288zm-.384-.16h.384v-.16H.907a.3.3 0 0 0-.096.16M.8.8H.437v.075h.288zM.683.96H.437v.075H.65zm-.043.203V1.12H.437v.075H.64v-.043m.021.117H.437v.075h.245l-.031-.075"/>
</svg>