<svg width="32" height="32" viewBox="0 0 .96 .96" xmlns="http://www.w3.org/2000/svg">
  <path d="M.22.12a.02.02 0 0 1 0 .04.06.06 0 0 0-.06.06.02.02 0 0 1-.04 0 .1.1 0 0 1 .1-.1m.12.04a.02.02 0 0 1 0-.04h.08a.02.02 0 1 1 0 .04zm.2 0a.02.02 0 1 1 0-.04h.08a.02.02 0 1 1 0 .04zm-.2.68a.02.02 0 1 1 0-.04h.08a.02.02 0 1 1 0 .04zm.2 0a.02.02 0 1 1 0-.04h.08a.02.02 0 1 1 0 .04zM.12.34a.02.02 0 0 1 .04 0v.08a.02.02 0 1 1-.04 0zm0 .2a.02.02 0 1 1 .04 0v.08a.02.02 0 1 1-.04 0zm0 .2a.02.02 0 1 1 .04 0A.06.06 0 0 0 .22.8a.02.02 0 1 1 0 .04.1.1 0 0 1-.1-.1m.62.1a.02.02 0 1 1 0-.04A.06.06 0 0 0 .8.74a.02.02 0 1 1 .04 0 .1.1 0 0 1-.1.1m.1-.22a.02.02 0 1 1-.04 0V.54a.02.02 0 1 1 .04 0zm0-.2a.02.02 0 1 1-.04 0V.34a.02.02 0 1 1 .04 0zm0-.2a.02.02 0 1 1-.04 0A.06.06 0 0 0 .74.16a.02.02 0 1 1 0-.04.1.1 0 0 1 .1.1"/>
</svg>
