<svg width="32" height="32" viewBox="0 0 5.12 5.12" xmlns="http://www.w3.org/2000/svg" aria-hidden="true" class="iconify iconify--noto">
  <path fill="#fcc11a" d="M1.496 1.678c-0.388 0.499 -0.382 1.386 0.115 1.826 0.564 0.499 1.357 0.494 1.856 0.035 0.598 -0.55 0.564 -1.466 0.035 -1.985 -0.532 -0.522 -1.482 -0.549 -2.005 0.125"/>
  <path fill="#fee269" d="M2.12 1.507c-0.154 -0.068 -0.322 0.117 -0.395 0.244 -0.073 0.127 -0.141 0.375 0.015 0.439 0.156 0.063 0.268 -0.044 0.38 -0.229 0.112 -0.185 0.175 -0.375 0 -0.453"/>
  <path fill="#ffa722" d="M2.52 0.811c-0.037 0.07 -0.025 0.123 0.049 0.141s0.534 0.092 0.573 0.095c0.056 0.004 0.077 -0.039 0.07 -0.088 -0.007 -0.049 -0.12 -0.738 -0.13 -0.802S3.006 0.03 2.942 0.115 2.548 0.758 2.52 0.811m1.192 0.478c-0.072 0.022 -0.07 0.067 -0.032 0.123s0.306 0.464 0.33 0.492c0.025 0.028 0.067 0.035 0.102 -0.007 0.035 -0.042 0.474 -0.658 0.506 -0.696 0.053 -0.063 0.021 -0.13 -0.06 -0.109 -0.062 0.016 -0.802 0.183 -0.848 0.197m0.552 1.185c-0.052 -0.03 -0.12 -0.021 -0.137 0.046s-0.095 0.552 -0.102 0.594 0.025 0.084 0.077 0.074 0.778 -0.118 0.826 -0.13c0.084 -0.021 0.112 -0.106 0.025 -0.169 -0.057 -0.041 -0.64 -0.387 -0.689 -0.415M3.684 3.624c0.056 -0.03 0.106 -0.007 0.12 0.056 0.014 0.063 0.169 0.71 0.194 0.83 0.012 0.06 -0.056 0.109 -0.112 0.074 -0.056 -0.035 -0.668 -0.461 -0.707 -0.496 -0.056 -0.049 -0.017 -0.1 0.01 -0.126 0.056 -0.053 0.443 -0.31 0.496 -0.338m-1.702 0.355c-0.071 -0.007 -0.092 0.056 -0.081 0.112 0.01 0.056 0.116 0.77 0.123 0.823 0.01 0.077 0.092 0.109 0.144 0.032s0.414 -0.656 0.443 -0.71c0.053 -0.098 0.014 -0.12 -0.039 -0.144 -0.052 -0.024 -0.517 -0.105 -0.591 -0.112M0.969 3.16c0.049 -0.081 0.112 -0.06 0.158 0.018 0.031 0.053 0.295 0.408 0.32 0.446 0.025 0.039 0.035 0.112 -0.042 0.13 -0.078 0.018 -0.707 0.183 -0.806 0.201s-0.155 -0.06 -0.092 -0.144c0.037 -0.05 0.433 -0.605 0.461 -0.651m-0.134 -0.612c0.09 0.04 0.132 0.026 0.151 -0.039 0.025 -0.084 0.098 -0.471 0.102 -0.559 0.002 -0.057 -0.021 -0.112 -0.109 -0.098S0.259 1.954 0.178 1.982c-0.094 0.033 -0.087 0.136 -0.025 0.169 0.074 0.039 0.619 0.369 0.682 0.397m1.094 -1.477c0.051 -0.04 0.035 -0.098 -0.01 -0.13s-0.61 -0.44 -0.682 -0.496c-0.063 -0.049 -0.141 -0.032 -0.12 0.081 0.015 0.081 0.195 0.788 0.208 0.837 0.014 0.056 0.056 0.084 0.106 0.049 0.048 -0.035 0.446 -0.298 0.499 -0.341"/>
</svg>
