<svg width="32" height="32" viewBox="0 0 0.96 0.96" data-name="Flat Color" xmlns="http://www.w3.org/2000/svg" class="icon flat-color"><path d="M0.88 0.392a0.04 0.04 0 0 0 -0.033 -0.028l-0.228 -0.031 -0.104 -0.192a0.04 0.04 0 0 0 -0.07 0L0.343 0.334l-0.228 0.031a0.04 0.04 0 0 0 -0.033 0.028 0.04 0.04 0 0 0 0.011 0.04l0.164 0.149 -0.04 0.21a0.04 0.04 0 0 0 0.058 0.045L0.48 0.735l0.205 0.101a0.04 0.04 0 0 0 0.018 0.004 0.04 0.04 0 0 0 0.04 -0.047l-0.04 -0.21 0.164 -0.149A0.04 0.04 0 0 0 0.88 0.392" style="fill:#000"/></svg>