<svg xmlns="http://www.w3.org/2000/svg" viewBox="0 0 32 32" xmlSpace="preserve" width="32" height="32">
  <path style="fill:#fff" d="M18.086 24.75q0 2.835.612 3.538.862.952 2.653.952h1.066v2.135H9.378V29.24h1.089q1.95 0 2.767-1.179.498-.725.499-3.311V2.841h-2.467q-2.155 0-3.061.317-1.179.431-2.018 1.655-.842 1.226-.999 3.312H3.097l.363-7.5h25.103l.34 7.5h-2.091q-.25-1.905-.68-2.721-.703-1.315-1.871-1.939t-3.073-.624h-3.102z"/>
  <path d="M29.188.597A.625.625 0 0 0 28.563 0H3.46a.625.625 0 0 0-.624.595l-.363 7.5a.625.625 0 0 0 .624.655h2.091a.625.625 0 0 0 .623-.578c.097-1.273.396-2.284.89-3.005.487-.711 1.047-1.176 1.713-1.42.37-.129 1.165-.281 2.851-.281h1.842V24.75c0 2.158-.272 2.787-.388 2.955-.424.612-1.161.91-2.253.91H9.377a.625.625 0 0 0-.625.625v2.135c0 .345.28.625.625.625h13.039c.345 0 .625-.28.625-.625V29.24a.625.625 0 0 0-.625-.625H21.35c-1.001 0-1.736-.249-2.185-.742-.111-.131-.455-.733-.455-3.123V8.938a.625.625 0 0 0-1.25 0v15.813c0 2.094.243 3.348.766 3.948l.008.009c.695.768 1.744 1.158 3.117 1.158h.441v.884H10.003v-.885h.464c1.511 0 2.615-.487 3.282-1.45.415-.604.609-1.769.609-3.665V2.841a.625.625 0 0 0-.625-.625h-2.468c-1.521 0-2.59.115-3.268.352l-.008.003c-.908.332-1.688.967-2.319 1.889-.538.785-.889 1.806-1.047 3.039h-.87l.302-6.25h23.911l.283 6.25h-.895c-.169-1.073-.39-1.858-.671-2.391-.526-.984-1.242-1.722-2.128-2.196-.867-.463-2-.697-3.367-.697h-3.102a.625.625 0 0 0 0 1.25h3.102c1.16 0 2.095.185 2.778.55.673.36 1.201.91 1.613 1.679.172.327.419 1.028.613 2.511a.625.625 0 0 0 .62.544h2.091a.625.625 0 0 0 .624-.653z"/>
  <path d="M17.461 4.938v1.875a.625.625 0 0 0 1.25 0V4.938a.625.625 0 0 0-1.25 0M11.25 20.376c.345 0 .625-.28.625-.625v-1.438a.625.625 0 0 0-1.25 0v1.438c0 .345.28.625.625.625m-.625 6.438a.625.625 0 0 0 1.25 0v-4.688a.625.625 0 0 0-1.25 0z"/>
</svg>
