<svg fill="#000000" width="32px" height="32px" viewBox="0 0 40 40" xmlns="http://www.w3.org/2000/svg">
  <path d="M29.36 37.8q-0.88 0 -1.52 -0.64t-0.64 -1.52v-4.08H12.2q-1.56 0 -2.66 -1.1t-1.1 -2.66V12.8h-4.08q-0.88 0 -1.52 -0.64t-0.64 -1.54 0.64 -1.54 1.52 -0.64h4.08v-4.08q0 -0.88 0.64 -1.52t1.54 -0.64 1.54 0.64 0.64 1.52V26.24q0 0.4 0.28 0.68T13.76 27.2h21.88q0.88 0 1.52 0.64t0.64 1.54 -0.64 1.54 -1.52 0.64h-4.08v4.08q0 0.88 -0.64 1.52t-1.56 0.64m-2.16 -12.48V13.76q0 -0.4 -0.28 -0.68T26.24 12.8H14.68V8.44h13.12q1.56 0 2.66 1.1t1.1 2.66v13.12z"/>
</svg>
