<svg width="32" height="32" viewBox="-0.06 0 1.28 1.28" xmlns="http://www.w3.org/2000/svg">
  <g/>
  <path d="m1.067.395-.038.038A.46.46 0 0 0 .727.32a.46.46 0 0 0-.213.053L.676.211a.1.1 0 0 0 .043.013.1.1 0 0 0 .06-.026.085.085 0 0 0 0-.122Q.753.05.719.05C.685.05.676.059.659.076a.09.09 0 0 0-.013.105L.441.386.403.348.298.453l.038.038L.127.7A.1.1 0 0 0 .084.687a.1.1 0 0 0-.06.026.085.085 0 0 0 0 .122q.026.023.06.023c.034 0 .043-.009.06-.026A.09.09 0 0 0 .157.727L.32.565a.46.46 0 0 0 .06.514l-.039.041.107.105.105-.105-.105-.105-.036.036A.42.42 0 0 1 .386.543L.403.56.51.455.491.438A.4.4 0 0 1 .728.363c.1 0 .194.036.271.1L.961.499l.107.105.105-.105-.105-.107zm-.574.725-.045.045-.045-.045.045-.045zM.689.109a.04.04 0 0 1 .06 0 .04.04 0 0 1 0 .06.04.04 0 0 1-.06 0C.672.154.672.126.689.109M.115.802a.04.04 0 0 1-.06 0Q.042.792.042.772q0-.016.013-.03C.068.728.074.729.085.729s.021.004.03.013c.017.017.017.045 0 .06M.401.501.356.456.401.411l.045.045zm.666.045L1.022.501l.045-.045.045.045z"/>
</svg>
