<svg xmlns="http://www.w3.org/2000/svg" viewBox="0 0 32 32" xmlSpace="preserve" width="32" height="32">
  <path d="M31.304 0h-5.565a.695.695 0 0 0-.696.696v2.091c-12.507.159-22.26 9.786-22.26 22.049v.208H.696a.695.695 0 0 0-.696.695v5.565A.695.695 0 0 0 .696 32h5.565a.695.695 0 0 0 .696-.696v-5.565a.695.695 0 0 0-.696-.696H4.174v-.208c0-11.483 9.141-20.499 20.87-20.658v2.084a.695.695 0 0 0 .696.696h5.565a.695.695 0 0 0 .696-.696V.696A.695.695 0 0 0 31.304 0M5.565 26.435v4.174H1.391v-4.174zm25.043-20.87h-4.174V1.391h4.174z"/>
</svg>
